<?xml version="1.0" encoding="utf-8"?>
<!-- Generator: Adobe Illustrator 16.0.3, SVG Export Plug-In . SVG Version: 6.00 Build 0)  -->
<!DOCTYPE svg PUBLIC "-//W3C//DTD SVG 1.1//EN" "http://www.w3.org/Graphics/SVG/1.1/DTD/svg11.dtd">
<svg version="1.1" id="Ebene_1" xmlns="http://www.w3.org/2000/svg" xmlns:xlink="http://www.w3.org/1999/xlink" x="0px" y="0px"
	 width="206px" height="356px" viewBox="0 0 206 356" enable-background="new 0 0 206 356" xml:space="preserve">
<g>
	<path fill-rule="evenodd" clip-rule="evenodd" fill="#FECD0F" d="M87.217,347.55c-1.666,0-3.333,0-4.999,0
		c-20.863-2.953-40.197-11.278-60.205-17.225c-3.752-1.114-7.601-2.689-9.529-6.692c-0.713-3.811,0.945-7.212,2.021-10.664
		c7.386-23.69,14.705-47.402,22.16-71.07c10.959-34.79,21.664-69.658,32.576-104.462c6.277-20.023,12.477-40.07,18.757-60.092
		c0.599-1.909,1.195-3.813,2.034-5.632c1.275-2.296,3.486-2.355,5.662-2.192c3.314,0.248,6.634,0.362,9.951,0.559
		c7.467,0.601,14.646,2.511,21.751,4.757c13.028,3.439,25.611,7.987,37.042,15.285c3.941,2.517,7.338,5.659,9.952,9.587
		c1.203,2.026,2.149,4.147,2.387,6.529c0.579,3.924-0.633,7.307-3.117,10.309c-3.147,2.486-3.522,6.358-4.563,9.763
		c-9.166,29.995-18.661,59.887-27.954,89.842c-10.967,35.35-21.952,70.695-32.979,106.027c-0.821,2.63-2.008,5.36-0.816,8.252
		c-0.271,8.086-5.693,14.52-13.406,16.003C91.708,346.863,89.376,346.689,87.217,347.55z"/>
	<path fill-rule="evenodd" clip-rule="evenodd" fill="#B9BDC1" d="M105.278,10.688c1.637-3.345,5.509-3.778,7.936-6.094
		c2.333,0,4.666,0,6.999,0c12.894,4.001,25.792,7.983,38.677,12.011c5.809,1.816,11.679,3.491,17.361,5.65
		c7.101,2.698,11.86,7.609,12.775,15.535c-3.364,0.064-4.981-2.353-6.667-4.682c-0.246-0.403-0.438-0.833-0.604-1.273
		c-3.315-4.424-7.689-6.949-13.216-7.396c-2.31-0.062-4.108,1.636-6.341,1.871c-9.59-2.187-19.151-4.455-28.043-8.851
		c-1.229-1.17-1.951-2.728-3.041-4.006c-3.207-3.056-11.238-4.249-14.749-2.166c-0.845,0.448-1.751,0.631-2.696,0.643
		C110.948,11.024,107.878,12.436,105.278,10.688z"/>
	<path fill-rule="evenodd" clip-rule="evenodd" fill="#232019" d="M173.415,100.646c-5.787-8.242-14.526-12.235-23.277-16.243
		c-7.4-3.389-15.152-5.755-22.912-8.11c-2.138-2.542-2.873-5.551-2.936-8.786c-0.17-8.616,0.168-17.242-0.965-25.835
		c-0.361-2.75-0.342-5.672,1.479-8.136c2.424-2.102,5.3-1.76,8.049-1.169c18.896,4.064,35.939,11.585,49.315,26.17
		c3.388,3.694,4.577,7.248,2.922,12.154c-2.809,8.329-4.664,16.971-8.022,25.129C176.287,97.718,176.145,100.188,173.415,100.646z"
		/>
	<path fill-rule="evenodd" clip-rule="evenodd" fill="#494D44" d="M173.415,100.646c4.858-10.967,7.348-22.714,11.181-34.02
		c0.849-2.5-1.061-3.99-2.457-5.601c-11.42-13.167-26.126-20.836-42.666-25.373c-4.316-1.184-8.649-2.479-13.229-2.118
		c-7.046,1.353-14.323-0.633-21.312,1.489c-8.113,0.594-12.179,5.042-13.766,12.979c-1.688,8.441-4.792,16.549-7.699,24.673
		c-0.955,2.254-2.654,3.801-4.801,4.847c-0.805,0.392-1.637,0.354-1.61-0.929c3.501-11.673,7.003-23.347,10.508-35.036
		c-1.978-0.87-2.917,1.015-4.359,0.941c-2.378-0.931-4.704-0.351-7.032,0.234c-2.598-1.218-1.506-2.917-0.464-4.438
		c1.485-2.167,3.688-2.683,6.108-2.001c5.896,1.66,7.689,0.833,9.25-5.313c2.189-8.617,5.919-16.016,14.211-20.294
		c2.646-0.224,5.292-1.262,7.943-0.023c0.896,2.995,2.886,4.471,5.99,5.082c5.043,0.991,10.002,2.485,15.141,0.646
		c9.563,2.968,19.127,5.936,28.689,8.903c3.559,3.583,7.998,5.788,12.327,8.251c3.303,1.879,5.746,1.942,7.998-1.222
		c1.887,1.821,3.773,3.643,5.659,5.464c5.071,8.288,3.832,16.78,0.758,25.298c-1.538,4.263-1.321,7.428,4.133,8.227
		c2.423,0.354,3.67,2.131,3.773,4.571c0.064,1.533-0.122,3.291-1.678,3.856c-2.309,0.84-4.081-0.652-5.539-2.251
		c-1.074-1.178-1.921-2.563-3.104-4.176c-2.708,3.556-2.85,7.66-4.237,11.267c-2.838,7.375-3.954,15.351-7.79,22.382
		C175.526,104.606,174.234,102.699,173.415,100.646z"/>
	<path fill-rule="evenodd" clip-rule="evenodd" fill="#D8CBAF" d="M13.331,323.639c-2.299-1.497-4.375-3.186-5.116-6.01
		c-1.036-1.82-0.233-3.549,0.306-5.265c12.559-39.98,25.096-79.969,37.6-119.968c12.057-38.575,24.191-77.127,36.237-115.706
		c0.548-1.755,1.212-3.444,2.206-5.005c2.079-1.751,4.206-2.128,6.41-0.225c-0.734,8.526-4.441,16.234-6.916,24.252
		c-19.107,61.945-38.473,123.81-57.736,185.706C21.946,295.479,17.659,309.566,13.331,323.639z"/>
	<path fill-rule="evenodd" clip-rule="evenodd" fill="#D9CBAF" d="M83.09,288.578c-2.762,8.301-8.767,11.415-16.901,8.793
		c-3.165-1.021-6.393-1.866-9.516-3.001c-5.789-2.104-8.006-6.014-6.585-12.09c1.055-4.51,2.476-8.945,3.937-13.346
		c2.396-7.214,7.468-9.924,15.074-8.26c3.609,1.231,7.395,1.871,10.969,3.201c7.027,2.615,9.508,7.589,6.826,14.526
		C85.589,281.781,84.78,285.347,83.09,288.578z"/>
	<path fill-rule="evenodd" clip-rule="evenodd" fill="#D9CBAF" d="M118.394,174.383c-1.349,6.649-7.837,11.116-14.267,9.516
		c-4.171-1.038-8.3-2.366-12.306-3.929c-5.571-2.175-7.865-6.751-6.286-12.43c1.333-4.796,2.881-9.543,4.583-14.222
		c2.115-5.82,8.459-8.64,14.519-6.691c4.089,0.817,8.108,1.921,11.974,3.465c6.332,2.528,8.509,7.292,5.951,13.632
		C121.135,167.264,120.158,170.98,118.394,174.383z"/>
	<path fill-rule="evenodd" clip-rule="evenodd" fill="#322F25" d="M104.181,33.679c7.339-2.409,14.695-2.074,22.063-0.143
		c-2.069,3.214-1.377,6.909-0.856,10.137c1.252,7.772,0.489,15.535,0.859,23.287c0.149,3.12,0.643,6.224,0.979,9.334
		c-7.338-1.601-14.677-3.202-22.015-4.803c-1.308-1.203-1.952-2.779-1.88-4.468c0.388-9.151-1.421-18.207-1.111-27.351
		C102.294,37.467,102.544,35.355,104.181,33.679z"/>
	<path fill-rule="evenodd" clip-rule="evenodd" fill="#242119" d="M104.181,33.679c-0.479,12.626,1.711,25.18,1.03,37.812
		c-4.747,0.359-9.489-1.143-14.237-0.029c-1.981,0.11-4.041-0.302-5.857,0.89c-0.877,1.105-1.849,1.047-2.882,0.233
		c3.31-10.932,6.587-21.874,9.944-32.792C94.055,33.689,99.91,35.194,104.181,33.679z"/>
	<path fill-rule="evenodd" clip-rule="evenodd" fill="#33312C" d="M173.288,115.062c-11.127,35.953-22.24,71.91-33.386,107.856
		c-10.657,34.372-21.321,68.742-32.112,103.073c-0.525,1.672,0.078,3.774-1.652,5.05c-2.242-2.068-0.889-4.229-0.211-6.413
		c15.226-48.979,30.439-97.964,45.648-146.95c5.953-19.175,11.863-38.363,17.871-57.521
		C170.093,118.096,170.077,115.292,173.288,115.062z"/>
	<path fill-rule="evenodd" clip-rule="evenodd" fill="#352E1F" d="M118.394,174.383c0.402-3.991,2.109-7.614,3.213-11.408
		c1.674-5.753-0.781-10.374-6.471-12.489c-3.496-1.299-7.305-1.749-10.499-3.859c6.481-0.462,12.307,2.054,17.59,5.104
		c3.011,1.738,4.579,5.659,2.532,9.643C122.551,165.668,121.996,170.771,118.394,174.383z"/>
	<path fill-rule="evenodd" clip-rule="evenodd" fill="#332D20" d="M83.09,288.578c-0.126-3.753,1.749-6.987,2.749-10.442
		c1.973-6.825-0.533-11.445-7.179-13.819c-3.201-1.144-6.882-1.122-9.562-3.642c6.123-0.24,11.72,2.156,16.948,4.618
		c3.492,1.645,5.391,6.029,3.252,10.182C87.08,279.783,86.626,284.917,83.09,288.578z"/>
	<path fill-rule="evenodd" clip-rule="evenodd" fill="#C6BAA0" d="M82.234,72.584c0.961-0.078,1.921-0.156,2.882-0.233
		c-3.59,12.097-7.072,24.228-10.795,36.284c-8.039,26.042-16.189,52.051-24.317,78.065c-10.104,32.34-19.981,64.753-30.485,96.963
		C15.821,295,13.326,306.76,8.215,317.629c-3.728-5.228-4.339-10.598-0.737-16.16c4.566-10.188,7.068-21.065,10.52-31.626
		c6.135-18.776,11.883-37.679,17.715-56.55c6.666-21.571,13.486-43.096,20.109-64.681c5.693-18.56,11.588-37.06,17.188-55.648
		c0.814-2.703,2.92-5.362,1.203-8.477c0.948-2.631,1.896-5.262,2.845-7.893C79.28,75.9,80.704,74.174,82.234,72.584z"/>
	<path fill-rule="evenodd" clip-rule="evenodd" fill="#343027" d="M74.212,84.487c4.17,0.95,1.729,3.639,1.182,5.413
		c-9.688,31.449-19.478,62.866-29.26,94.286c-11.562,37.132-23.145,74.257-34.688,111.394c-0.745,2.396-1.227,4.88-3.968,5.89
		c0.938-8.801,4.711-16.81,7.192-25.167c6.21-20.917,12.894-41.694,19.37-62.532c9.518-30.621,19.02-61.247,28.531-91.869
		C66.446,109.429,70.331,96.958,74.212,84.487z"/>
	<path fill-rule="evenodd" clip-rule="evenodd" fill="#44413A" d="M76.173,42.733c2.252-2.874,4.574-3.61,7.032-0.234
		C80.897,43.665,78.575,44.376,76.173,42.733z"/>
	<path fill-rule="evenodd" clip-rule="evenodd" fill="#322F26" d="M183.367,32.325c-0.68,5.76-1.759,6.325-6.659,3.586
		c-3.58-2.002-7.164-4.005-10.816-5.869c-2.023-1.032-2.836-2.603-2.85-4.747c1.139-2.177,2.891-2.666,5.113-1.856
		c5.852,1.057,10.517,4.313,14.923,8.047C183.2,31.757,183.296,32.037,183.367,32.325z"/>
	<path fill-rule="evenodd" clip-rule="evenodd" fill="#322F26" d="M134.353,16.392c-1.473,2.627-3.381,3.595-6.541,2.652
		c-3.748-1.119-7.652-1.853-11.541-2.323c-4.395-0.531-4.852-2.62-3.049-6.057c0.964-0.11,1.928-0.22,2.892-0.331
		c5.614-1.619,10.767,0.229,15.913,2.12C133.328,13.456,134.394,14.597,134.353,16.392z"/>
	<path fill-rule="evenodd" clip-rule="evenodd" fill="#E8DCA1" d="M132.026,12.454c-5.304-0.707-10.607-1.414-15.912-2.121
		c0.387-0.677,0.614-1.703,1.191-1.969C119.429,7.388,130.296,10.53,132.026,12.454z"/>
	<path fill-rule="evenodd" clip-rule="evenodd" fill="#EDDFA4" d="M183.078,31.486c-4.974-2.682-9.947-5.364-14.922-8.047
		C172.565,22.313,180.987,26.854,183.078,31.486z"/>
</g>
</svg>
