<?xml version="1.0" encoding="utf-8"?>
<!-- Generator: Adobe Illustrator 16.0.3, SVG Export Plug-In . SVG Version: 6.00 Build 0)  -->
<!DOCTYPE svg PUBLIC "-//W3C//DTD SVG 1.1//EN" "http://www.w3.org/Graphics/SVG/1.1/DTD/svg11.dtd">
<svg version="1.1" id="Ebene_1" xmlns="http://www.w3.org/2000/svg" xmlns:xlink="http://www.w3.org/1999/xlink" x="0px" y="0px"
	 width="450.443px" height="191px" viewBox="0 0 450.443 191" enable-background="new 0 0 450.443 191" xml:space="preserve">
<g>
	<path fill-rule="evenodd" clip-rule="evenodd" d="M88.38,175.619c3.187-15.275,6.373-30.55,9.776-46.865
		c-12.018,3.736-23.046,1.589-34.053-0.979c-8.418-1.964-16.025-5.526-22.461-11.392c-8.96-8.165-18.077-16.167-26.808-24.569
		c-5.24-5.042-5.638-12.696-1.639-17.238c4.652-5.284,12.561-5.968,18.451-1.437c3.159,2.43,6.37,4.876,9.122,7.734
		c7.03,7.297,14.809,13.902,24.387,16.938c8.384,2.657,14.553,6.146,17.571,14.958c1.396,4.076,8.835,5.607,12.834,3.071
		c5.195-3.294,9.882-7.389,14.388-11.798c-3.644,2.15-7.439,4.083-10.903,6.493c-8.988,6.251-16.372,3.522-18.828-7.146
		c-1.506-6.54,2.202-16.335,8.038-19.757c8.585-5.034,17.371-9.732,26.147-14.431c2.295-1.229,4.872-1.932,7.566-2.972
		c0.55,1.316,1.114,2.164,1.255,3.076c1.704,11.089,8.604,19.085,16.501,26.036c8.703,7.662,23.876,4.999,32.112-5.074
		c3.548-4.339,6.625-9.063,10.196-14c0.555,0.315,1.642,0.692,2.408,1.412c2.174,2.043,3.873,1.773,5.888-0.387
		c1.676-1.798,3.75-3.282,5.817-4.649c7.652-5.061,7.374-4.765,13.104,2.059c8.894,10.591,22.81,13.817,33.515,2.871
		c2.889-2.952,5.555-6.121,8.874-9.801c3.859,2.729,8.008,5.178,11.554,8.31c3.361,2.97,6.281,4.149,9.178,0.942
		c3.856,4.836,7.151,9.965,11.405,14.109c11.568,11.271,25.329,10.711,36.266-1.316c2.838-3.122,5.059-6.922,7.02-10.693
		c1.898-3.65,3.099-7.664,4.891-12.251c3.048,1.099,6.307,1.808,9.09,3.367c7.98,4.473,15.913,9.066,23.596,14.029
		c9.922,6.409,11.438,19.041,3.51,26.509c-3.102,2.922-6.531,3.939-10.454,1.715c-4.628-2.623-9.229-5.295-14.047-7.661
		c5.204,4.47,10.135,9.479,17.074,11.286c4.274,1.113,9.511-2.045,11.89-7.999c2.154-5.392,5.374-7.912,10.969-8.954
		c9.959-1.856,16.665-9.38,24.261-15.237c3.417-2.636,6.546-5.662,9.689-8.633c5.686-5.371,12.318-6.547,17.09-2.899
		c5.465,4.177,7.555,13.424,2.222,18.815c-13.032,13.171-25.623,27.508-43.574,34.148c-8.121,3.004-17.212,3.677-25.948,4.594
		c-3.964,0.416-8.135-1.149-12.576-1.875c2.538,15.866,5.072,31.704,7.604,47.541c-27.329,0-54.66,0-81.989,0
		c-1.274-12.563-2.391-25.146-3.931-37.677c-0.414-3.365-1.745-6.762-3.306-9.813c-3.64-7.116-3.796-7.031,1.292-13.466
		c0.115-0.146-0.086-0.544-0.142-0.824c-6.555,4.14-10.526,9.151-10.482,13.459c0.113,10.976,0.401,21.952,0.394,32.927
		c-0.005,5.131-0.532,10.262-0.823,15.393c-25.663,0-51.327,0-76.99,0c0.909-15.444,1.68-30.897,2.812-46.325
		c0.335-4.569-0.893-8.235-4.061-11.249c-3.411-3.246-7.049-6.253-10.587-9.365c2.241,3.594,5.031,6.601,7.864,9.568
		c2.174,2.277,2.216,4.358,0.311,7.027c-2.484,3.479-5.563,7.094-6.418,11.073c-2.788,12.987-4.681,26.166-6.919,39.271
		C142.374,175.619,115.377,175.619,88.38,175.619z"/>
	<path fill-rule="evenodd" clip-rule="evenodd" d="M122.025,51.325c1.478-6.233,2.408-12.664,4.564-18.652
		c3.146-8.734,9.438-14.415,19.054-15.453c21.331-2.302,33.375,5.812,37.798,26.319c3.293,15.268-0.829,29.95-10.131,41.995
		c-8.642,11.189-23.916,17.585-37.096,2.829C126.099,77.037,122.946,68.571,122.025,51.325z"/>
	<path fill-rule="evenodd" clip-rule="evenodd" d="M332.247,53.284c-2.286,8.787-3.38,18.127-7.135,26.234
		c-5.898,12.736-23.147,23.612-38.717,10.888c-14.76-12.062-15.43-28.106-14.449-44.745c0.535-9.09,4.409-16.92,12.005-22.618
		c8.494-6.371,25.927-7.557,34.686-1.857c7.802,5.077,9.534,13.672,11.657,21.839c0.822,3.168,0.611,6.605,0.872,9.92
		C331.526,53.059,331.887,53.171,332.247,53.284z"/>
	<path fill-rule="evenodd" clip-rule="evenodd" d="M257.361,38.493c0.434,14.225-5.378,26.81-16.05,37.433
		c-8.72,8.678-24.176,6.668-32.117-4.807c-7.039-10.171-11.188-21.506-11.156-34.1c0.058-22.363,14.339-31.983,35.563-29.284
		C248.386,9.617,258.761,21.604,257.361,38.493z"/>
</g>
</svg>
