<?xml version="1.0" encoding="utf-8"?>
<!-- Generator: Adobe Illustrator 16.0.3, SVG Export Plug-In . SVG Version: 6.00 Build 0)  -->
<!DOCTYPE svg PUBLIC "-//W3C//DTD SVG 1.1//EN" "http://www.w3.org/Graphics/SVG/1.1/DTD/svg11.dtd">
<svg version="1.1" id="Ebene_1" xmlns="http://www.w3.org/2000/svg" xmlns:xlink="http://www.w3.org/1999/xlink" x="0px" y="0px"
	 width="349px" height="317px" viewBox="0 0 349 317" enable-background="new 0 0 349 317" xml:space="preserve">
<g>
	<path fill-rule="evenodd" clip-rule="evenodd" d="M12.07,156.971c0-3,0-6,0-8.999c3.159-9.325,7.111-18.229,13.826-26.624
		c2.83,9.156,8.627,15.234,17.038,16.541c8.18,1.271,11.333,6.007,13.56,12.707c0.625,1.876,1.619,3.63,2.252,5.504
		c3.009,8.892,5.542,17.786-2.139,26.603c5.199-0.586,6.974-3.729,8.237-7.093c2.547-6.777,1.079-13.442-1.397-19.864
		c-3.036-7.865-6.705-15.494-9.541-23.425c-2.764-7.726-2.047-15.361,2.814-22.27c2.895-4.113,6.572-6.086,11.926-5.36
		c4.398,0.597,4.723,3.558,5.152,6.667c0.496,3.581-2.492,3.151-4.602,3.755c-1.252,0.358-2.435,0.958-3.648,1.45
		c2.998,1.114,5.887,0.846,8.514,1.552c4.504,1.211,4.612-0.81,4.348-4.364c-0.665-8.942-1.506-17.924-1.281-26.865
		c0.215-8.47,2.986-16.479,9.961-21.964c10.055-7.908,29.725-5.773,38.281,3.92c0.977,1.106,1.772,2.964,1.631,4.37
		c-1.295,12.881,0.297,26.245-6.008,38.463c6.319-2.813,8.309-8.653,8.836-14.568c1.135-12.738,1.577-25.543,2.085-38.33
		c0.306-7.693,2.833-14.17,9.938-17.695c16.452-8.164,32.714-6.859,48.315,2.346c5.623,3.317,7.469,10.074,5.369,16.685
		c-0.796,2.507-1.838,4.967-3.042,7.309c-5.711,11.109-10.38,22.592-11.93,35.071c-0.751,6.046-1.412,12.237,1.884,18.02
		c0.696-4.588,0.169-9.231,0.789-13.716c2.454-17.732,9.554-33.643,19.94-48.122c4.099-5.714,8.552-11.256,15.891-12.813
		c13.083-2.773,24.496,1.309,34.733,9.308c6.026,4.709,7.484,10.642,5.613,18.183c-1.778,7.171-3.055,14.662-3.074,22.015
		c-0.018,6.502,2.198,12.984,3.04,19.525c0.449,3.498,0.079,7.101,0.079,11.485c4.432-4.824,4.064-9.545,2.845-14.286
		c-2.34-9.098-3.395-18.197-1.438-27.543c0.544-2.597,1.435-3.761,4.175-3.692c7.703,0.193,15.391,1.712,20.557,7.374
		c14.243,15.61,22.219,33.616,17.821,55.403c-1.063,5.258-2.127,10.516-3.189,15.774c0.404,0.105,0.811,0.211,1.215,0.316
		c4.359-9.603,8.594-19.266,13.172-28.764c1.08-2.24,3.316-3.921,5.021-5.858c1.863,1.751,4.547,3.159,5.443,5.312
		c3.604,8.652,7.936,17.3,9.594,26.389c2.164,11.862,0.695,23.803-10.023,32.05c-4.182,3.218-8.813,5.902-13.426,8.5
		c-7.887,4.44-14.228,10.027-17.53,18.858c-1.358,3.631-4.471,6.566-6.34,10.058c-1.231,2.297-2.162,4.98-2.365,7.56
		c-0.545,6.926-2.158,12.995-8.886,16.632c-1.308,0.706-2.969,2.753-2.785,3.916c2.032,12.876-10.928,21.593-21.477,22.729
		c-4.375,0.471-8.681,1.583-13.711,2.534c3.41,10.614,2.097,19.012-7.742,26.242c-0.901-4.503-1.775-8.287-2.403-12.11
		c-1.432-8.72-2.486-17.835-10.53-23.228c-4.711-3.159-8.319-6.457-8.625-11.137c-7.172,1.059-14.057,2.933-20.927,2.881
		c-9.739-0.073-18.269-3.884-22.838-13.232c-2.219-4.536-3.606-9.506-5.092-14.364c-1.354-4.423-2.329-8.96-3.472-13.446
		c-0.403,0.074-0.806,0.147-1.208,0.222c0.814,8.116,1.629,16.232,2.463,24.55c-10.206,1.093-19.853-0.919-28.076-8.435
		c-8.374-7.652-6.366-18.558-8.49-28.175c-0.453,0.067-0.907,0.134-1.36,0.201c-0.358,6.398-0.718,12.797-1.143,20.383
		c-8.13,0-16.124,0.55-24.015-0.126c-12.51-1.071-20.698-8.398-23.973-20.514c-0.354-1.308,0.088-3.133,0.783-4.367
		c2.125-3.771,4.553-7.37,6.863-11.036c-4.397,2.504-7.845,5.633-11.357,8.688c-8.408,7.309-21.469,7.597-29.186,0.684
		c-9.949-8.914-11.75-20.993-4.639-31.12c1.249-1.778,2.499-3.555,3.748-5.333c-3.31,1.435-6.106,3.25-8.438,5.541
		c-2.234,2.192-4.105,2.144-5.791-0.178C19.048,167.215,15.597,162.065,12.07,156.971z M224.614,154.086
		c5.787-6.197,7.45-13.291,6.241-20.743c-1.925-11.87-4.506-23.633-6.936-36.096c-0.327,1.608-0.834,2.703-0.714,3.724
		c1.123,9.509,2.297,19.012,3.567,28.502c1.487,11.108-0.607,23.76-16.538,26.126c-7.069,1.05-14.479,4.231-20.231,8.479
		c-5.729,4.231-11,6.337-18.04,6.132c-15.54-0.452-25.548-7.146-29.93-21.97c-4.788-16.199-2.823-32.533,0.441-48.735
		c1.716-8.516,3.768-16.965,5.667-25.444c-0.439-0.164-0.881-0.328-1.322-0.492c-1.219,2.939-2.809,5.785-3.583,8.837
		c-1.784,7.035-3.819,14.102-4.575,21.28c-1.298,12.343-2.84,24.845-2.149,37.161c0.663,11.847,6.548,22.114,15.797,28.573
		c-4.842,5.309-9.426,10.387-14.094,15.387c-0.575,0.617-1.62,1.198-2.411,1.153c-8.189-0.471-16.371-1.074-24.574-1.642
		c0.76-16.107-2.943-20.617-20.971-24.991c-1.294-9.554-5.227-14.318-12.861-15.582c10.154,10.953,10.584,13.836,3.042,20.438
		c14.152-1.828,21.244,1.973,24.396,6.632c5.916,8.749,1.502,15.862-4.405,22.725c0.976,0.007,1.558-0.155,2.042-0.467
		c9.504-6.138,19.631-5.983,30.164-3.353c2.82,0.704,3.117,1.504,2.811,4.322c-0.936,8.566-0.209,16.993,4.613,24.574
		c-0.016-4.57-0.529-9.08-0.805-13.604c-0.917-14.991,3.27-26.781,17.154-30.442c7.357-1.939,15.646-0.343,24.344-0.343
		c-2.694,8.446-3.512,15.783,0.689,22.322c3.933,6.123,8.701,11.709,13.102,17.531c0.425-0.314,0.85-0.63,1.275-0.945
		c-3.052-4.817-6.156-9.603-9.146-14.459c-9.428-15.313-0.666-30.006,12.482-35.585c12.188-5.171,24.858-5.529,37.521-2.046
		c7.744,2.13,12.334,7.597,13.413,15.608c0.619,4.596,0.47,9.298,1.138,13.884c1.037,7.12-0.41,14.884,4.913,21.367
		c-0.805-13.933-1.585-27.454-2.396-41.501c10.244-1.371,18.706-5.95,23.569-16.063c4.619-9.607,5.529-19.623,4.37-30.017
		c-1.039,4.806-1.617,9.697-2.611,14.501c-1.955,9.447-5.07,18.507-14.079,23.51c-3.764,2.089-8.402,3.061-12.739,3.434
		c-1.697,0.146-3.522-2.957-5.527-4.195c-2.786-1.722-5.661-3.492-8.741-4.497C233.968,155.764,229.712,155.184,224.614,154.086z
		 M99.078,89.448c-0.394-0.04-0.787-0.08-1.182-0.12c-2.275,6.07-4.635,12.109-6.806,18.215c-4.326,12.163-3.01,23.605,5.669,33.392
		c4.691,5.292,10.299,9.781,15.602,14.512c0.966,0.862,2.445,1.148,4.967,2.267c-5.225-5.548-9.445-9.923-13.545-14.409
		c-9.379-10.263-13.492-21.784-8.344-35.499c1.099-2.928,2.236-5.893,2.836-8.942C98.879,95.792,98.837,92.592,99.078,89.448z
		 M320.229,164.901c-11.684,15.177-25.488,25.074-45.995,18.273C292.391,196.947,315.619,183.748,320.229,164.901z M224.276,205.66
		c-0.573,0.277-1.146,0.553-1.72,0.83c3.039,7.592,6.016,15.21,9.208,22.737c0.336,0.791,1.948,1.04,2.967,1.54
		c0.234-1.105,1.011-2.475,0.62-3.275C231.774,220.158,227.996,212.924,224.276,205.66z"/>
	<path fill-rule="evenodd" clip-rule="evenodd" d="M207.045,12.989c5.64,2.594,11.469,4.857,16.835,7.93
		c2.482,1.421,4.061,4.422,5.606,6.197c-8.827,2.745-16.578,5.302-24.435,7.476c-1.572,0.435-3.547-0.585-6.219-1.106
		c1.421,2.538,2.697,4.816,4.128,7.37c12.406-8.653,26.018-7.802,40.313-6.118c-2.79-4.465-12.086-1.978-9.206-10.465
		c9.879-4.045,27.336,3.291,27.857,14.564c-3.468,0.158-6.965,0.318-10.462,0.478c-0.06,0.372-0.118,0.743-0.178,1.115
		c6.067,1.481,12.189,2.774,18.186,4.502c4.897,1.411,9.753,3.092,14.432,5.107c5.21,2.245,8.538,6.2,8.757,12.187
		c-5.86,0.692-8.393-0.229-10.03-3.689c-6.995,3.316-7.483,6.96-2.104,15.708c0.213-0.171,0.617-0.355,0.608-0.517
		c-0.644-11.546,0.974-8.6,8.86-7.571c9.723,1.269,14.977,7.187,13.932,15.438c-0.398,3.132-3.203,5.959-5.142,9.33
		c2.142-1.172,4.367-2.262,6.458-3.569c2-1.251,4.148-4.149,5.723-3.828c4.076,0.833,8.658,2.181,11.605,4.886
		c5.176,4.753,3.838,11.648,3.094,17.886c-0.123,1.025-2.332,2.191-3.768,2.567c-1.701,0.445-3.607,0.104-5.426,0.104
		c-0.012,0.549-0.021,1.098-0.033,1.647c3.281,0,7.332,1.221,9.684-0.258c4.672-2.941,6.332,0.208,8.441,2.732
		c1.439,1.724,2.33,3.906,3.467,5.883c0,4,0,7.999,0,11.998c-0.91,2-1.818,3.998-3.162,6.956c-1.584-2.958-2.756-5.208-3.986-7.423
		c-0.803-1.449-1.609-2.908-2.557-4.262c-5.418-7.756-10.242-7.824-15.893-0.247c-0.59,0.79-1.053,1.672-2.35,2.208
		c0.133-8.468-8.246-16.3-0.332-25.157c-5.969,4.224-8.184,0.478-10.211-3.878c-7.135-15.33-19.709-22.367-36.133-23.262
		c2.48-15.619-1.278-22.91-15.64-29.888c-8.738-4.245-17.888-7.785-27.719-4.845c-4.743,1.417-9.064,4.381-13.409,6.93
		c-1.763,1.034-3.081,2.828-4.695,4.366c-9.963-16.736-24.93-23.75-44.228-20.96c-3.91,0.565-7.847,1.307-11.606,2.489
		c-12.256,3.852-18.197,11.669-18.955,24.428c-0.084,1.428-0.222,2.852-0.381,4.854c-3.455-1.924-6.426-3.577-9.34-5.198
		c1.115-7.122-0.215-9.471-7.102-12.017c-3.244-1.199-6.838-1.605-9.875-3.151c-1.896-0.964-4.201-3.361-4.238-5.158
		c-0.041-2.108,1.678-5.381,3.505-6.196c6.785-3.026,14.042-3.02,20.588,0.607c2.233,1.237,3.497,4.557,4.729,7.149
		c0.816,1.717,0.789,3.834,1.252,6.392c3.393-6.57,0.568-11.673-2.154-16.878c3.361-4.787,7.697-7.929,13.638-7.816
		c1.751,0.033,3.474,1.596,5.208,2.458c-1.007,1.481-1.939,3.022-3.057,4.416c-0.469,0.584-1.326,0.857-1.783,2.092
		c2.276-0.389,4.603-0.6,6.816-1.214c2.834-0.787,4.219-2.341,2.529-5.522c-0.527-0.993-0.467-3.073,0.226-3.813
		c4.977-5.32,21.595-4.675,27.079,1.429c-3.16,0.785-5.979,1.484-8.797,2.184c0.045,0.346,0.092,0.692,0.139,1.039
		c1.92,0.128,3.838,0.339,5.759,0.367c3.973,0.057,7.948,0.017,12.081-0.812c-0.43-0.205-0.889-0.364-1.283-0.622
		c-1.257-0.821-2.49-1.679-3.732-2.523c1.052-1.174,1.896-2.722,3.197-3.445c2.84-1.577,5.912-2.733,8.89-4.061
		C196.38,12.989,201.712,12.989,207.045,12.989z"/>
	<path fill-rule="evenodd" clip-rule="evenodd" d="M74.761,59.244c1.979,1.306,3.959,2.612,5.338,3.521
		c-2.305,6.106-5.404,11.873-6.531,18.002c-1.117,6.076-0.244,12.517-0.244,19.539c-9.946-1.471-17.403,0.937-22.12,9.59
		c-4.333,7.947-3.319,16.25-2.403,24.624c-12.424-0.239-23.365-10.267-18.162-24.798c1.455-4.063,2.967-8.105,4.452-12.157
		c-0.399-0.188-0.798-0.375-1.198-0.563c-1.992,3.261-3.984,6.522-6.097,9.98c-4.404-10.36-0.985-22.521,7.329-26.165
		c2.27-0.995,4.354-2.41,6.61-3.442c6.097-2.789,10.034-7.421,12.151-13.718c0.525-1.562,1.281-3.046,1.807-4.609
		c6.166-18.368,17.857-20.344,33.716-15.881c6.651,1.872,13.1,4.475,19.616,6.81c2.571,0.921,5.115,1.997,3.547,6.077
		c-6.1,0-12.367-0.367-18.566,0.125c-4.321,0.344-8.516,2.085-12.836,2.758c-1.836,0.286-3.85-0.562-5.781-0.894
		C75.179,58.442,74.97,58.843,74.761,59.244z M57.621,67.083c-0.412-0.071-0.824-0.143-1.237-0.214
		c-0.837,3.953-0.668,8.604-2.794,11.662c-2.158,3.106-6.58,4.642-9.887,6.785C55.593,87.248,59.566,82.128,57.621,67.083z"/>
</g>
</svg>
